{"title":"Teenage Dream - Boyce Avenue (Piano Acoustic Version) 1080p - Ti","uid":5852276,"size":69773545,"categoryP":"video","categoryS":"music_videos","magnet":"?xt=urn:btih:fc33fefba72ecedb02280cf4e3c45b343ae14d73&amp;dn=Teenage+Dream+-+Boyce+Avenue+%28Piano+Acoustic+Version%29+1080p+-+Ti&amp;tr=udp%3A%2F%2Ftracker.openbittorrent.com%3A80&amp;tr=udp%3A%2F%2Fopen.demonii.com%3A1337&amp;tr=udp%3A%2F%2Ftracker.coppersurfer.tk%3A6969&amp;tr=udp%3A%2F%2Fexodus.desync.com%3A6969","seeders":0,"leechers":0,"uploader":"sup3xtian","files":1,"time":1285436142,"description":"YOUTUBE RIP\n\n\nInfo:\n\nVideo\n\nFormat                           : MPEG / AVC\nFormat/Info                      : Advanced Video Codec\nFormat profile                   : &lt;a class=&quot;__cf_email__&quot; href=&quot;/cdn-cgi/l/email-protection&quot; data-cfemail=&quot;0941606e6149453d2739&quot;&gt;[email&amp;#160;protected]&lt;/a&gt;&lt;script data-cfhash='f9e31' type=&quot;text/javascript&quot;&gt;\n/* &lt;![CDATA[ */!function(){try{var t=&quot;currentScript&quot;in document?document.currentScript:function(){for(var t=document.getElementsByTagName(&quot;script&quot;),e=t.length;e--;)if(t[e].getAttribute(&quot;data-cfhash&quot;))return t[e]}();if(t&amp;&amp;t.previousSibling){var e,r,n,i,c=t.previousSibling,a=c.getAttribute(&quot;data-cfemail&quot;);if(a){for(e=&quot;&quot;,r=parseInt(a.substr(0,2),16),n=2;a.length-n;n+=2)i=parseInt(a.substr(n,2),16)^r,e+=String.fromCharCode(i);e=document.createTextNode(e),c.parentNode.replaceChild(e,c)}t.parentNode.removeChild(t);}}catch(u){}}()/* ]]&gt; */&lt;/script&gt;\nFormat settings, CABAC           : Yes\nFormat settings, ReFrames        : 1 frame\nCodec ID                         : avc1\nCodec ID/Info                    : Advanced Video Coding\nDuration                         : 4mn 41s\nBit rate mode                    : Variable\nBit rate                         : 1 860 Kbps\nMaximum bit rate                 : 3 234 Kbps\nWidth                            : 1 920 pixels\nHeight                           : 1 080 pixels\nDisplay aspect ratio             : 16:9\nFrame rate mode                  : Constant\nFrame rate                       : 25.000 fps\nColor space                      : YUV\nChroma subsampling               : 4:2:0\nBit depth                        : 8 bits\nScan type                        : Progressive\nBits/(Pixel*Frame)               : 0.036\nStream size                      : 62.3 MiB (94%)\n\n\nAudio\n\n\nFormat                           : AAC\nFormat/Info                      : Advanced Audio Codec\nFormat version                   : Version 4\nFormat profile                   : LC\nFormat settings, SBR             : No\nCodec ID                         : 40\nDuration                         : 4mn 41s\nBit rate mode                    : Variable\nBit rate                         : 121 Kbps\nMaximum bit rate                 : 186 Kbps\nChannel(s)                       : 2 channels\nChannel positions                : Front: L R\nSampling rate                    : 44.1 KHz\nStream size                      : 4.07 MiB (6%)\n\n","torrent":{"xt":"urn:btih:fc33fefba72ecedb02280cf4e3c45b343ae14d73","amp;dn":"Teenage+Dream+-+Boyce+Avenue+%28Piano+Acoustic+Version%29+1080p+-+Ti","amp;tr":["udp%3A%2F%2Ftracker.openbittorrent.com%3A80","udp%3A%2F%2Fopen.demonii.com%3A1337","udp%3A%2F%2Ftracker.coppersurfer.tk%3A6969","udp%3A%2F%2Fexodus.desync.com%3A6969"],"infoHash":"fc33fefba72ecedb02280cf4e3c45b343ae14d73","infoHashBuffer":{"type":"Buffer","data":[252,51,254,251,167,46,206,219,2,40,12,244,227,196,91,52,58,225,77,115]},"announce":[],"urlList":[]}}